<svg width="67" height="67" viewBox="0 0 67 67" fill="none" xmlns="http://www.w3.org/2000/svg">
<path d="M65.5 33.5C65.5 51.1731 51.1731 65.5 33.5 65.5C15.8269 65.5 1.5 51.1731 1.5 33.5C1.5 15.8269 15.8269 1.5 33.5 1.5C51.1731 1.5 65.5 15.8269 65.5 33.5Z" fill="black"/>
<path d="M47.2143 35.3267C47.2143 44.4696 40.8143 49.041 33.2074 51.6925C32.8091 51.8274 32.3764 51.821 31.9823 51.6742C24.3571 49.041 17.9571 44.4696 17.9571 35.3267V22.5267C17.9571 22.0418 18.1498 21.5767 18.4927 21.2337C18.8356 20.8908 19.3007 20.6982 19.7857 20.6982C23.4429 20.6982 28.0143 18.5039 31.196 15.7245C31.5834 15.3935 32.0762 15.2116 32.5857 15.2116C33.0952 15.2116 33.588 15.3935 33.9754 15.7245C37.1754 18.5222 41.7286 20.6982 45.3857 20.6982C45.8707 20.6982 46.3358 20.8908 46.6787 21.2337C47.0216 21.5767 47.2143 22.0418 47.2143 22.5267V35.3267Z" fill="black"/>
<path d="M33.2074 51.6925L33.6889 53.1132L33.7011 53.1089L33.2074 51.6925ZM31.9823 51.6742L32.5059 50.2685C32.4946 50.2643 32.4833 50.2603 32.4719 50.2563L31.9823 51.6742ZM31.196 15.7245L30.2216 14.584C30.2175 14.5876 30.2133 14.5912 30.2092 14.5948L31.196 15.7245ZM33.9754 15.7245L34.9627 14.5952C34.9584 14.5914 34.9541 14.5877 34.9498 14.584L33.9754 15.7245ZM65.5 33.5H64C64 50.3447 50.3447 64 33.5 64V65.5V67C52.0015 67 67 52.0015 67 33.5H65.5ZM33.5 65.5V64C16.6553 64 3 50.3447 3 33.5H1.5H0C0 52.0015 14.9985 67 33.5 67V65.5ZM1.5 33.5H3C3 16.6553 16.6553 3 33.5 3V1.5V0C14.9985 0 0 14.9985 0 33.5H1.5ZM33.5 1.5V3C50.3447 3 64 16.6553 64 33.5H65.5H67C67 14.9985 52.0015 0 33.5 0V1.5ZM47.2143 35.3267H45.7143C45.7143 39.502 44.2706 42.5563 41.9893 44.8969C39.6671 47.2794 36.4099 48.9877 32.7137 50.276L33.2074 51.6925L33.7011 53.1089C37.6118 51.7458 41.3581 49.8426 44.1376 46.9909C46.958 44.0972 48.7143 40.2943 48.7143 35.3267H47.2143ZM33.2074 51.6925L32.726 50.2718C32.6544 50.2961 32.5767 50.2949 32.5059 50.2685L31.9823 51.6742L31.4587 53.0798C32.1761 53.3471 32.9638 53.3588 33.6888 53.1131L33.2074 51.6925ZM31.9823 51.6742L32.4719 50.2563C28.7678 48.9772 25.5071 47.2734 23.1835 44.8937C20.9008 42.5558 19.4571 39.5021 19.4571 35.3267H17.9571H16.4571C16.4571 40.2943 18.2135 44.0977 21.037 46.9895C23.8198 49.8395 27.5716 51.738 31.4927 53.092L31.9823 51.6742ZM17.9571 35.3267H19.4571V22.5267H17.9571H16.4571V35.3267H17.9571ZM17.9571 22.5267H19.4571C19.4571 22.4396 19.4918 22.356 19.5534 22.2944L18.4927 21.2337L17.4321 20.1731C16.8078 20.7973 16.4571 21.6439 16.4571 22.5267H17.9571ZM18.4927 21.2337L19.5534 22.2944C19.615 22.2328 19.6986 22.1982 19.7857 22.1982V20.6982V19.1982C18.9029 19.1982 18.0563 19.5489 17.4321 20.1731L18.4927 21.2337ZM19.7857 20.6982V22.1982C23.9283 22.1982 28.8369 19.777 32.1828 16.8541L31.196 15.7245L30.2092 14.5948C27.1917 17.2307 22.9574 19.1982 19.7857 19.1982V20.6982ZM31.196 15.7245L32.1704 16.8649C32.2861 16.766 32.4334 16.7116 32.5857 16.7116V15.2116V13.7116C31.7189 13.7116 30.8806 14.021 30.2216 14.584L31.196 15.7245ZM32.5857 15.2116V16.7116C32.738 16.7116 32.8853 16.766 33.0011 16.8649L33.9754 15.7245L34.9498 14.584C34.2908 14.021 33.4525 13.7116 32.5857 13.7116V15.2116ZM33.9754 15.7245L32.9881 16.8537C36.3539 19.7963 41.2442 22.1982 45.3857 22.1982V20.6982V19.1982C42.2129 19.1982 37.997 17.248 34.9627 14.5952L33.9754 15.7245ZM45.3857 20.6982V22.1982C45.4729 22.1982 45.5564 22.2328 45.6181 22.2944L46.6787 21.2337L47.7394 20.1731C47.1151 19.5489 46.2685 19.1982 45.3857 19.1982V20.6982ZM46.6787 21.2337L45.6181 22.2944C45.6797 22.356 45.7143 22.4396 45.7143 22.5267H47.2143H48.7143C48.7143 21.644 48.3636 20.7973 47.7394 20.1731L46.6787 21.2337ZM47.2143 22.5267H45.7143V35.3267H47.2143H48.7143V22.5267H47.2143Z" fill="#FFFAFA"/>
</svg>
